HIERARCHY
ROOT Hips
{
	OFFSET -0.179506 -22.333345 2.821913
	CHANNELS 6 Xposition Yposition Zposition Zrotation Yrotation Xrotation 
	JOINT LeftUpLeg
	{
		OFFSET 6.951974 -9.140623 -0.681533
		CHANNELS 3 Zrotation Yrotation Xrotation
		JOINT LeftLeg
		{
			OFFSET 3.427654 -37.519855 -0.449580
			CHANNELS 3 Zrotation Yrotation Xrotation
			JOINT LeftFoot
			{
				OFFSET -1.359570 -39.796059 -4.369333
				CHANNELS 3 Zrotation Yrotation Xrotation
				JOINT LeftToe
				{
					OFFSET 2.635814 -5.579078 11.928840
					CHANNELS 3 Zrotation Yrotation Xrotation
					End Site
					{
						OFFSET 0.000000 0.000000 0.000000
					}
				}
			}
		}
	}
	JOINT RightUpLeg
	{
		OFFSET -6.767048 -9.052170 -0.431982
		CHANNELS 3 Zrotation Yrotation Xrotation
		JOINT RightLeg
		{
			OFFSET -3.829005 -38.256897 -0.885003
			CHANNELS 3 Zrotation Yrotation Xrotation
			JOINT RightFoot
			{
				OFFSET 1.577377 -39.841461 -4.231180
				CHANNELS 3 Zrotation Yrotation Xrotation
				JOINT RightToe
				{
					OFFSET -2.537174 -4.814398 12.334795
					CHANNELS 3 Zrotation Yrotation Xrotation
					End Site
					{
						OFFSET 0.000000 0.000000 0.000000
					}
				}
			}
		}
	}
	JOINT Spine
	{
		OFFSET -0.253288 10.896323 -2.669631
		CHANNELS 3 Zrotation Yrotation Xrotation
		JOINT Spine1
		{
			OFFSET 0.548704 13.518043 0.109247
			CHANNELS 3 Zrotation Yrotation Xrotation
			JOINT Spine2
			{
				OFFSET 0.145701 5.292222 2.542457
				CHANNELS 3 Zrotation Yrotation Xrotation
				JOINT Neck
				{
					OFFSET -0.277840 21.387037 -4.285703
					CHANNELS 3 Zrotation Yrotation Xrotation
					JOINT Head
					{
						OFFSET 0.515184 6.496960 5.134897
						CHANNELS 3 Zrotation Yrotation Xrotation
						End Site
						{
							OFFSET 0.000000 0.000000 0.000000
						}
					}
				}
				JOINT LeftShoulder
				{
					OFFSET 7.884473 12.174932 -3.408961
					CHANNELS 3 Zrotation Yrotation Xrotation
					JOINT LeftArm
					{
						OFFSET 9.097692 3.046888 -0.886815
						CHANNELS 3 Zrotation Yrotation Xrotation
						JOINT LeftForeArm
						{
							OFFSET 25.961220 -1.277207 -2.745643
							CHANNELS 3 Zrotation Yrotation Xrotation
							JOINT LeftHand
							{
								OFFSET 24.923361 0.898606 -0.117091
								CHANNELS 3 Zrotation Yrotation Xrotation
								End Site
								{
									OFFSET 0.000000 0.000000 0.000000
								}
							}
						}
					}
				}
				JOINT RightShoulder
				{
					OFFSET -8.175920 11.883285 -3.861528
					CHANNELS 3 Zrotation Yrotation Xrotation
					JOINT RightArm
					{
						OFFSET -9.601238 3.255117 -0.914307
						CHANNELS 3 Zrotation Yrotation Xrotation
						JOINT RightForeArm
						{
							OFFSET -25.374195 -1.332924 -2.140099
							CHANNELS 3 Zrotation Yrotation Xrotation
							JOINT RightHand
							{
								OFFSET -25.529810 0.777228 -0.555919
								CHANNELS 3 Zrotation Yrotation Xrotation
								End Site
								{
									OFFSET 0.000000 0.000000 0.000000
								}
							}
						}
					}
				}
			}
		}
	}
}
MOTION
Frames: 6
Frame Time: 0.033333
334.772980 -338.273895 80.267288 -144.123510 -5.152550 104.407158 3.055679 -4.517792 -46.003078 -6.084979 19.216137 82.012985 7.812489 19.131503 -40.889124 nan nan nan -6.396410 -1.474926 -15.964823 4.814092 -2.590200 43.761243 1.243470 -4.272983 -8.004821 nan nan nan 0.924973 6.712645 20.898464 0.010783 -0.427446 7.540413 -0.959569 3.253389 -5.369020 -5.055230 -0.582776 -4.443051 -0.361302 0.937639 -26.801884 -25.235033 5.651727 3.836528 -54.570889 20.398295 17.262171 -0.411483 -55.641377 18.105572 6.544872 -25.740106 -15.490173 19.977866 6.905087 5.901306 37.296530 0.305375 3.779420 -7.064963 53.982094 -2.212934 -17.896030 19.953054 -20.365511 
334.294556 -335.908508 80.914551 -142.426649 -3.758506 100.285366 6.250248 -3.443870 -45.883437 -7.583938 17.691507 81.542716 8.748682 19.979470 -46.693740 nan nan nan -3.875794 -2.090719 -7.745863 4.323838 -3.318016 38.434343 0.758480 -5.770157 -12.534311 nan nan nan -0.101497 8.095504 23.947135 1.898234 -0.874324 9.505704 -0.049734 3.070733 -3.954130 -1.531221 3.232158 -8.176930 -1.706863 -2.922497 -25.233832 -19.680637 6.877616 5.970777 -62.324319 16.253025 15.518227 5.061921 -53.775544 15.971941 5.415555 -25.645674 -17.553958 22.175751 11.234460 5.346224 56.290067 9.321799 11.374220 -14.614294 48.938341 -5.887969 -20.355845 16.248977 -28.403772 
332.451019 -333.864044 81.262772 -143.055892 -4.086844 100.639398 7.259340 -3.165609 -49.064728 -6.951718 18.472842 80.515754 8.943703 18.858753 -44.632192 nan nan nan -4.383406 -2.170705 -4.620125 3.652971 -2.030768 34.325238 1.246928 -5.346240 -11.573201 nan nan nan -0.663552 9.185128 23.305739 1.570936 -1.143246 9.576006 -0.250045 3.162066 -4.231094 -0.970926 3.400777 -7.640706 -1.350075 -3.533169 -25.135617 -19.075146 8.224581 5.918766 -60.952517 18.122315 15.556343 3.414422 -54.910215 17.511717 4.521196 -26.450150 -18.452386 22.210359 11.085038 5.553966 56.608809 9.937720 12.767716 -13.203978 51.251984 -4.236811 -19.905818 16.711765 -29.296900 
330.433167 -331.762665 81.507477 -143.122704 -4.287663 101.389557 8.282620 -3.211745 -52.544049 -6.546254 19.090373 78.962626 9.383455 17.728161 -41.409200 nan nan nan -4.904647 -2.591228 -1.978653 2.585130 -1.813189 30.746823 1.443189 -5.821894 -8.909689 nan nan nan -1.476451 10.695167 23.649392 1.931394 -1.079642 8.369433 -0.002874 3.107421 -5.851207 -0.131277 2.940334 -7.338239 -1.681857 -4.633146 -23.626117 -18.051281 10.469911 5.686335 -58.983017 20.028977 16.971117 -0.514892 -55.765218 22.473649 4.242074 -27.166191 -19.335975 21.993611 9.134137 3.837618 56.873746 8.316245 15.087894 -10.509106 53.105169 -0.452401 -20.103019 16.790036 -29.862341 
330.179871 -329.635071 81.415871 -141.564004 -2.547580 105.023274 12.705503 -1.447646 -60.880130 -6.886161 19.246468 78.521973 9.686991 17.536140 -39.564851 nan nan nan -1.994369 -1.535009 -5.679198 4.271748 -3.381371 34.777127 1.986970 -6.127420 -8.761344 nan nan nan -2.820104 10.816479 22.733553 2.839461 -0.766115 1.437356 0.443254 2.791816 -3.235089 2.199696 4.153115 -10.371776 -1.609279 -5.833418 -17.176832 -14.515966 14.037471 4.789687 -56.585800 21.890129 18.182902 -8.901440 -57.142105 31.996751 6.326495 -26.981313 -23.151665 21.427581 6.641120 2.003506 58.712959 6.698582 19.270647 4.188584 66.149151 16.770259 -23.789301 16.242598 -37.879380 
327.993011 -327.485138 82.028786 -141.732500 -2.688948 105.633395 13.851063 -1.528213 -62.769014 -4.614372 21.307656 77.631088 5.286955 11.671052 -13.408284 nan nan nan -4.422271 -4.684094 -2.756640 1.270909 -8.840395 28.736816 -0.910366 -9.196356 -4.222107 nan nan nan -2.873705 11.916249 20.963287 2.196382 -0.850570 1.445829 0.796759 2.957273 -3.359037 1.897155 2.868105 -8.102579 -0.674521 -6.157426 -17.572302 -14.904751 13.838798 5.804988 -54.171876 23.421827 18.297021 -12.360173 -58.255223 35.319787 7.661788 -26.457763 -24.338159 21.545124 6.050665 2.107231 57.617454 6.193123 18.237940 4.829546 68.513692 14.254909 -22.603115 15.877425 -35.989151 
